# xmcd
#
# Track frame offsets: 
#        150
#        15652
#        35066
#        48894
#        62285
#        87606
#        106861
#        122625
#        149998
#        165542
#
# Disc length: 2368 seconds
#
# Revision: 0
# Processed by: cddbd v1.5.2PL0 Copyright (c) Steve Scherf et al.
# Submitted via: ExactAudioCopyFreeDBPlugin 1.0
#
DISCID=85093e0a
DTITLE=Various Artist - Fortepian dusza jazzu CD 2
DYEAR=2009
DGENRE=Jazz
TTITLE0=Thelonious Monk - Smoke Gets in Your Eyes
TTITLE1=Erroll Garner - My Heart Stood Still
TTITLE2=Nat King Cole - I Almost Lost My Mind
TTITLE3=Earl Fatha Hines - Blues in Thirds
TTITLE4=Oscar Peterson - I Want to Be Happy
TTITLE5=Bud Powell - Tea for Two
TTITLE6=Horace Silver - Opus the Funk
TTITLE7=Art Tatum - I'm in a Sentimental Mood
TTITLE8=Fats Waller - Honeysuckle Rose
TTITLE9=Teddy Wilson - China Boy
EXTD=
EXTT0=
EXTT1=
EXTT2=
EXTT3=
EXTT4=
EXTT5=
EXTT6=
EXTT7=
EXTT8=
EXTT9=
PLAYORDER=
